<svg width="24" height="24" viewBox="0 0 24 24" fill="none" xmlns="http://www.w3.org/2000/svg">
<path d="M22.4733 11.5267L12.4733 1.52666C12.3484 1.40249 12.1794 1.33279 12.0033 1.33279C11.8272 1.33279 11.6582 1.40249 11.5333 1.52666L1.53332 11.5267C1.4241 11.6542 1.36703 11.8182 1.37351 11.986C1.37999 12.1538 1.44955 12.313 1.56828 12.4317C1.68701 12.5504 1.84617 12.62 2.01395 12.6265C2.18174 12.6329 2.34579 12.5759 2.47332 12.4667L12 2.93999L21.5267 12.4733C21.6542 12.5825 21.8182 12.6396 21.986 12.6331C22.1538 12.6267 22.313 12.5571 22.4317 12.4384C22.5504 12.3196 22.62 12.1605 22.6265 11.9927C22.6329 11.8249 22.5759 11.6609 22.4667 11.5333L22.4733 11.5267Z" fill="black"/>
<path d="M22.4733 11.5267L12.4733 1.52666C12.3484 1.40249 12.1794 1.33279 12.0033 1.33279C11.8272 1.33279 11.6582 1.40249 11.5333 1.52666L1.53332 11.5267C1.4241 11.6542 1.36703 11.8182 1.37351 11.986C1.37999 12.1538 1.44955 12.313 1.56828 12.4317C1.68701 12.5504 1.84617 12.62 2.01395 12.6265C2.18174 12.6329 2.34579 12.5759 2.47332 12.4667L12 2.93999L21.5267 12.4733C21.6542 12.5825 21.8182 12.6396 21.986 12.6331C22.1538 12.6267 22.313 12.5571 22.4317 12.4384C22.5504 12.3196 22.62 12.1605 22.6265 11.9927C22.6329 11.8249 22.5759 11.6609 22.4667 11.5333L22.4733 11.5267Z" fill="black" fill-opacity="0.2"/>
<path d="M18.6667 21.3333H15.3333V14.6667H8.66665V21.3333H5.33332V12L3.99999 13.3333V21.3333C3.99999 21.6869 4.14046 22.0261 4.39051 22.2761C4.64056 22.5262 4.9797 22.6667 5.33332 22.6667H9.99999V16H14V22.6667H18.6667C19.0203 22.6667 19.3594 22.5262 19.6095 22.2761C19.8595 22.0261 20 21.6869 20 21.3333V13.1733L18.6667 11.84V21.3333Z" fill="black"/>
<path d="M18.6667 21.3333H15.3333V14.6667H8.66665V21.3333H5.33332V12L3.99999 13.3333V21.3333C3.99999 21.6869 4.14046 22.0261 4.39051 22.2761C4.64056 22.5262 4.9797 22.6667 5.33332 22.6667H9.99999V16H14V22.6667H18.6667C19.0203 22.6667 19.3594 22.5262 19.6095 22.2761C19.8595 22.0261 20 21.6869 20 21.3333V13.1733L18.6667 11.84V21.3333Z" fill="black" fill-opacity="0.2"/>
</svg>
