<svg width="24" height="24" viewBox="0 0 24 24" fill="black" xmlns="http://www.w3.org/2000/svg">
<path d="M12 4C10.4178 4 8.87104 4.46919 7.55544 5.34824C6.23985 6.22729 5.21447 7.47672 4.60897 8.93853C4.00347 10.4003 3.84504 12.0089 4.15372 13.5607C4.4624 15.1126 5.22433 16.538 6.34315 17.6569C7.46197 18.7757 8.88743 19.5376 10.4393 19.8463C11.9911 20.155 13.5997 19.9965 15.0615 19.391C16.5233 18.7855 17.7727 17.7602 18.6518 16.4446C19.5308 15.129 20 13.5823 20 12C20 9.87827 19.1571 7.84344 17.6569 6.34315C16.1566 4.84285 14.1217 4 12 4V4ZM10.6667 7.43333C10.6667 7.16962 10.7449 6.91184 10.8914 6.69257C11.0379 6.47331 11.2461 6.30241 11.4898 6.20149C11.7334 6.10058 12.0015 6.07417 12.2601 6.12562C12.5188 6.17707 12.7563 6.30405 12.9428 6.49052C13.1293 6.67699 13.2563 6.91457 13.3077 7.17321C13.3592 7.43185 13.3328 7.69994 13.2318 7.94358C13.1309 8.18721 12.96 8.39545 12.7408 8.54196C12.5215 8.68847 12.2637 8.76667 12 8.76667C11.8194 8.77571 11.6388 8.74791 11.4693 8.68497C11.2997 8.62202 11.1448 8.52524 11.0138 8.40052C10.8828 8.27579 10.7786 8.12573 10.7075 7.95946C10.6363 7.79319 10.5998 7.61418 10.6 7.43333H10.6667ZM15.3333 16C15.3333 16.1768 15.2631 16.3464 15.1381 16.4714C15.0131 16.5964 14.8435 16.6667 14.6667 16.6667H10C9.82319 16.6667 9.65362 16.5964 9.5286 16.4714C9.40358 16.3464 9.33334 16.1768 9.33334 16C9.33334 15.8232 9.40358 15.6536 9.5286 15.5286C9.65362 15.4036 9.82319 15.3333 10 15.3333H11.3333V11.3333H10.6667C10.4899 11.3333 10.3203 11.2631 10.1953 11.1381C10.0702 11.013 10 10.8435 10 10.6667C10 10.4899 10.0702 10.3203 10.1953 10.1953C10.3203 10.0702 10.4899 10 10.6667 10H13.3333V15.3333H14.6667C14.8435 15.3333 15.0131 15.4036 15.1381 15.5286C15.2631 15.6536 15.3333 15.8232 15.3333 16Z"/>
</svg>
