<svg width="24" height="24" viewBox="0 0 24 24" fill="#0939B6" xmlns="http://www.w3.org/2000/svg">
<path d="M18.6667 20H4.00002V5.33333H12.8134L14.1467 4H4.00002C3.6464 4 3.30726 4.14048 3.05721 4.39052C2.80716 4.64057 2.66669 4.97971 2.66669 5.33333V20C2.66669 20.3536 2.80716 20.6928 3.05721 20.9428C3.30726 21.1929 3.6464 21.3333 4.00002 21.3333H18.6667C19.0203 21.3333 19.3594 21.1929 19.6095 20.9428C19.8595 20.6928 20 20.3536 20 20V10L18.6667 11.3333V20Z"/>
<path d="M22.3533 3.89333L20.1067 1.64667C20.007 1.54669 19.8885 1.46736 19.7581 1.41324C19.6277 1.35911 19.4879 1.33125 19.3467 1.33125C19.2055 1.33125 19.0656 1.35911 18.9352 1.41324C18.8048 1.46736 18.6864 1.54669 18.5867 1.64667L9.44666 10.84L8.70666 14.0467C8.67513 14.2021 8.67845 14.3626 8.71636 14.5166C8.75428 14.6706 8.82586 14.8143 8.92594 14.9373C9.02603 15.0604 9.15214 15.1597 9.2952 15.2282C9.43826 15.2966 9.59472 15.3326 9.75333 15.3333C9.8353 15.3424 9.91802 15.3424 9.99999 15.3333L13.2333 14.62L22.3533 5.41333C22.4533 5.31363 22.5326 5.19517 22.5868 5.06476C22.6409 4.93434 22.6687 4.79453 22.6687 4.65333C22.6687 4.51213 22.6409 4.37232 22.5868 4.24191C22.5326 4.11149 22.4533 3.99304 22.3533 3.89333V3.89333ZM12.54 13.3867L10.1 13.9267L10.6667 11.5067L17.5467 4.58L19.4267 6.46L12.54 13.3867ZM20.18 5.70667L18.3 3.82667L19.3333 2.77333L21.2267 4.66667L20.18 5.70667Z"/>
</svg>
