<svg width="24" height="24" viewBox="0 0 24 24" fill="#0939B6" xmlns="http://www.w3.org/2000/svg">
<path d="M11.29 8.70999L6.69998 13.3C6.6074 13.3926 6.53396 13.5025 6.48385 13.6234C6.43375 13.7444 6.40796 13.8741 6.40796 14.005C6.40796 14.1359 6.43375 14.2656 6.48385 14.3865C6.53396 14.5075 6.6074 14.6174 6.69998 14.71C6.79256 14.8026 6.90247 14.876 7.02344 14.9261C7.1444 14.9762 7.27405 15.002 7.40498 15.002C7.53591 15.002 7.66556 14.9762 7.78652 14.9261C7.90749 14.876 8.0174 14.8026 8.10998 14.71L12 10.83L15.88 14.71C15.9726 14.8026 16.0825 14.876 16.2034 14.9261C16.3244 14.9762 16.454 15.002 16.585 15.002C16.7159 15.002 16.8456 14.9762 16.9665 14.9261C17.0875 14.876 17.1974 14.8026 17.29 14.71C17.3826 14.6174 17.456 14.5075 17.5061 14.3865C17.5562 14.2656 17.582 14.1359 17.582 14.005C17.582 13.8741 17.5562 13.7444 17.5061 13.6234C17.456 13.5025 17.3826 13.3926 17.29 13.3L12.7 8.70999C12.6075 8.61728 12.4976 8.54373 12.3766 8.49355C12.2556 8.44337 12.1259 8.41754 11.995 8.41754C11.864 8.41754 11.7343 8.44337 11.6134 8.49355C11.4924 8.54373 11.3825 8.61728 11.29 8.70999Z"/>
</svg>
