<svg width="24" height="24" viewBox="0 0 24 24" fill="#0939B6" xmlns="http://www.w3.org/2000/svg">
<path d="M15.88 9.29001L12 13.17L8.11999 9.29001C8.02741 9.19742 7.9175 9.12399 7.79653 9.07388C7.67557 9.02378 7.54592 8.99799 7.41499 8.99799C7.28406 8.99799 7.15441 9.02378 7.03345 9.07388C6.91248 9.12399 6.80257 9.19742 6.70999 9.29001C6.61741 9.38259 6.54397 9.4925 6.49386 9.61346C6.44376 9.73443 6.41797 9.86408 6.41797 9.99501C6.41797 10.1259 6.44376 10.2556 6.49386 10.3765C6.54397 10.4975 6.61741 10.6074 6.70999 10.7L11.3 15.29C11.69 15.68 12.32 15.68 12.71 15.29L17.3 10.7C17.3927 10.6075 17.4662 10.4976 17.5164 10.3766C17.5666 10.2557 17.5924 10.126 17.5924 9.99501C17.5924 9.86404 17.5666 9.73436 17.5164 9.61338C17.4662 9.49241 17.3927 9.38252 17.3 9.29001C16.91 8.91001 16.27 8.90001 15.88 9.29001V9.29001Z"/>
</svg>
