<svg width="24" height="24" viewBox="0 0 24 24" fill="none" xmlns="http://www.w3.org/2000/svg">
<path d="M9 8C9 7.20435 9.31607 6.44129 9.87868 5.87868C10.4413 5.31607 11.2044 5 12 5V5C12.7956 5 13.5587 5.31607 14.1213 5.87868C14.6839 6.44129 15 7.20435 15 8V21.4C15 21.4788 14.9845 21.5568 14.9543 21.6296C14.9242 21.7024 14.88 21.7685 14.8243 21.8243C14.7685 21.88 14.7024 21.9242 14.6296 21.9543C14.5568 21.9845 14.4788 22 14.4 22H9.6C9.52121 22 9.44319 21.9845 9.37039 21.9543C9.29759 21.9242 9.23145 21.88 9.17574 21.8243C9.12002 21.7685 9.07583 21.7024 9.04567 21.6296C9.01552 21.5568 9 21.4788 9 21.4V8Z" stroke="black" strokeWidth="1.5" strokeLinecap="round"/>
<path d="M9 11H15" stroke="black" strokeWidth="1.5" strokeLinecap="round"/>
<path d="M12 2H13M12 5V2V5ZM12 2H11H12Z" stroke="black" strokeWidth="1.5" strokeLinecap="round"/>
</svg>
