<svg width="24" height="24" viewBox="0 0 24 24" fill="none" xmlns="http://www.w3.org/2000/svg">
<path d="M12 21.6C14.5461 21.6 16.9879 20.5886 18.7882 18.7882C20.5886 16.9879 21.6 14.5461 21.6 12C21.6 9.45392 20.5886 7.01212 18.7882 5.21177C16.9879 3.41142 14.5461 2.39999 12 2.39999C9.45395 2.39999 7.01215 3.41142 5.2118 5.21177C3.41145 7.01212 2.40002 9.45392 2.40002 12C2.40002 14.5461 3.41145 16.9879 5.2118 18.7882C7.01215 20.5886 9.45395 21.6 12 21.6V21.6ZM12 3.59999C12.7884 3.59999 13.6884 4.30799 14.4264 5.88959C14.6868 6.44879 14.9136 7.09199 15.0972 7.79999H8.90282C9.08642 7.09199 9.31322 6.44879 9.57482 5.88959C10.3104 4.30799 11.2104 3.59999 12 3.59999ZM8.48642 5.38199C8.13207 6.15817 7.85747 6.96833 7.66682 7.79999H4.72322C5.73631 6.04904 7.34549 4.72097 9.25682 4.05839C8.96762 4.45439 8.70962 4.90319 8.48642 5.38199ZM7.43042 8.99999C7.27512 9.99241 7.19808 10.9955 7.20002 12C7.20002 13.044 7.28042 14.0544 7.43162 15H4.15202C3.78606 14.0422 3.59896 13.0253 3.60002 12C3.60002 10.944 3.79562 9.93119 4.15202 8.99999H7.43162H7.43042ZM7.66682 16.2C7.87802 17.0916 8.15522 17.9064 8.48642 18.618C8.70962 19.0968 8.96762 19.5456 9.25682 19.9416C7.34549 19.279 5.73631 17.9509 4.72322 16.2H7.66802H7.66682ZM8.90282 16.2H15.0972C14.9319 16.8559 14.707 17.4954 14.4252 18.1104C13.6896 19.692 12.7896 20.4 12 20.4C11.2116 20.4 10.3116 19.692 9.57362 18.1104C9.29273 17.4953 9.06859 16.8559 8.90402 16.2H8.90282ZM15.3528 15H8.64722C8.48047 14.0087 8.39778 13.0052 8.40002 12C8.40002 10.9404 8.48762 9.92999 8.64722 8.99999H15.3528C15.5124 9.92999 15.6 10.9404 15.6 12C15.6 13.0596 15.5124 14.07 15.3528 15ZM16.3332 16.2H19.2768C18.2637 17.9509 16.6546 19.279 14.7432 19.9416C15.0324 19.5456 15.2904 19.0968 15.5136 18.618C15.8448 17.9064 16.122 17.0916 16.3332 16.2V16.2ZM19.8492 15H16.5684C16.7196 14.0544 16.8 13.044 16.8 12C16.8 10.956 16.7196 9.94559 16.5684 8.99999H19.848C20.2044 9.93119 20.4 10.944 20.4 12C20.4 13.056 20.2044 14.0688 19.848 15H19.8492ZM14.7432 4.05839C16.6546 4.72088 18.2638 6.04897 19.2768 7.79999H16.332C16.1414 6.96833 15.8668 6.15818 15.5124 5.38199C15.2988 4.91706 15.0408 4.47381 14.742 4.05839H14.7432Z" fill="black"/>
</svg>
