<svg width="24" height="24" viewBox="0 0 24 24" fill="none" xmlns="http://www.w3.org/2000/svg">
<path d="M21.5 4H19.3334V5.33333H21.3334V20H2.6667V5.33333H4.6667V4H2.50003C2.34419 4.0026 2.19038 4.03588 2.04741 4.09794C1.90443 4.15999 1.77508 4.24961 1.66674 4.36166C1.5584 4.47371 1.47319 4.60601 1.41599 4.751C1.35879 4.89599 1.33071 5.05083 1.33336 5.20667V20.1267C1.33071 20.2825 1.35879 20.4373 1.41599 20.5823C1.47319 20.7273 1.5584 20.8596 1.66674 20.9717C1.77508 21.0837 1.90443 21.1733 2.04741 21.2354C2.19038 21.2974 2.34419 21.3307 2.50003 21.3333H21.5C21.6559 21.3307 21.8097 21.2974 21.9526 21.2354C22.0956 21.1733 22.225 21.0837 22.3333 20.9717C22.4417 20.8596 22.5269 20.7273 22.5841 20.5823C22.6413 20.4373 22.6693 20.2825 22.6667 20.1267V5.20667C22.6693 5.05083 22.6413 4.89599 22.5841 4.751C22.5269 4.60601 22.4417 4.47371 22.3333 4.36166C22.225 4.24961 22.0956 4.15999 21.9526 4.09794C21.8097 4.03588 21.6559 4.0026 21.5 4V4Z" fill="black"/>
<path d="M5.33331 9.33334H6.66665V10.6667H5.33331V9.33334Z" fill="black"/>
<path d="M9.33331 9.33334H10.6666V10.6667H9.33331V9.33334Z" fill="black"/>
<path d="M13.3333 9.33334H14.6666V10.6667H13.3333V9.33334Z" fill="black"/>
<path d="M17.3333 9.33334H18.6666V10.6667H17.3333V9.33334Z" fill="black"/>
<path d="M5.33331 12.6667H6.66665V14H5.33331V12.6667Z" fill="black"/>
<path d="M9.33331 12.6667H10.6666V14H9.33331V12.6667Z" fill="black"/>
<path d="M13.3333 12.6667H14.6666V14H13.3333V12.6667Z" fill="black"/>
<path d="M17.3333 12.6667H18.6666V14H17.3333V12.6667Z" fill="black"/>
<path d="M5.33331 16H6.66665V17.3333H5.33331V16Z" fill="black"/>
<path d="M9.33331 16H10.6666V17.3333H9.33331V16Z" fill="black"/>
<path d="M13.3333 16H14.6666V17.3333H13.3333V16Z" fill="black"/>
<path d="M17.3333 16H18.6666V17.3333H17.3333V16Z" fill="black"/>
<path d="M6.66667 6.66668C6.84348 6.66668 7.01305 6.59644 7.13807 6.47141C7.2631 6.34639 7.33333 6.17682 7.33333 6.00001V2.00001C7.33333 1.8232 7.2631 1.65363 7.13807 1.52861C7.01305 1.40358 6.84348 1.33334 6.66667 1.33334C6.48986 1.33334 6.32029 1.40358 6.19526 1.52861C6.07024 1.65363 6 1.8232 6 2.00001V6.00001C6 6.17682 6.07024 6.34639 6.19526 6.47141C6.32029 6.59644 6.48986 6.66668 6.66667 6.66668Z" fill="black"/>
<path d="M17.3334 6.66668C17.5102 6.66668 17.6797 6.59644 17.8048 6.47141C17.9298 6.34639 18 6.17682 18 6.00001V2.00001C18 1.8232 17.9298 1.65363 17.8048 1.52861C17.6797 1.40358 17.5102 1.33334 17.3334 1.33334C17.1565 1.33334 16.987 1.40358 16.8619 1.52861C16.7369 1.65363 16.6667 1.8232 16.6667 2.00001V6.00001C16.6667 6.17682 16.7369 6.34639 16.8619 6.47141C16.987 6.59644 17.1565 6.66668 17.3334 6.66668Z" fill="black"/>
<path d="M8.66669 4H15.3334V5.33333H8.66669V4Z" fill="black"/>
</svg>
