<svg width="24" height="24" viewBox="0 0 24 24" fill="none" xmlns="http://www.w3.org/2000/svg">
<path d="M9.75 1.5C9.55109 1.5 9.36032 1.57902 9.21967 1.71967C9.07902 1.86032 9 2.05109 9 2.25C9 2.44891 9.07902 2.63968 9.21967 2.78033C9.36032 2.92098 9.55109 3 9.75 3H14.25C14.4489 3 14.6397 2.92098 14.7803 2.78033C14.921 2.63968 15 2.44891 15 2.25C15 2.05109 14.921 1.86032 14.7803 1.71967C14.6397 1.57902 14.4489 1.5 14.25 1.5H9.75ZM12 8.25C12.1989 8.25 12.3897 8.32902 12.5303 8.46967C12.671 8.61032 12.75 8.80109 12.75 9V13.5C12.75 13.6989 12.671 13.8897 12.5303 14.0303C12.3897 14.171 12.1989 14.25 12 14.25C11.8011 14.25 11.6103 14.171 11.4697 14.0303C11.329 13.8897 11.25 13.6989 11.25 13.5V9C11.25 8.80109 11.329 8.61032 11.4697 8.46967C11.6103 8.32902 11.8011 8.25 12 8.25V8.25ZM21 13.5C21 18.4702 16.9702 22.5 12 22.5C7.02975 22.5 3 18.4702 3 13.5C3 8.52975 7.02975 4.5 12 4.5C16.9702 4.5 21 8.52975 21 13.5ZM19.5 13.5C19.5 9.35775 16.1422 6 12 6C7.85775 6 4.5 9.35775 4.5 13.5C4.5 17.6422 7.85775 21 12 21C16.1422 21 19.5 17.6422 19.5 13.5ZM20.031 4.71975C19.9618 4.64812 19.8791 4.59098 19.7876 4.55167C19.696 4.51237 19.5976 4.49168 19.498 4.49081C19.3985 4.48995 19.2997 4.50892 19.2075 4.54663C19.1154 4.58434 19.0316 4.64003 18.9612 4.71045C18.8908 4.78087 18.8351 4.86461 18.7974 4.95678C18.7597 5.04896 18.7407 5.14772 18.7416 5.2473C18.7424 5.34689 18.7631 5.4453 18.8024 5.5368C18.8417 5.62831 18.8989 5.71106 18.9705 5.78025L20.4705 7.28025C20.5402 7.34988 20.6229 7.40511 20.7139 7.44278C20.8049 7.48044 20.9025 7.49981 21.001 7.49978C21.0995 7.49974 21.1971 7.4803 21.2881 7.44257C21.3791 7.40484 21.4617 7.34956 21.5314 7.27988C21.601 7.21019 21.6562 7.12748 21.6939 7.03645C21.7316 6.94542 21.7509 6.84787 21.7509 6.74936C21.7509 6.65085 21.7314 6.55331 21.6937 6.46231C21.656 6.37131 21.6007 6.28863 21.531 6.219L20.031 4.719V4.71975Z" fill="black"/>
</svg>
