<svg width="20" height="20" viewBox="0 0 20 20" fill="none" xmlns="http://www.w3.org/2000/svg">
<path d="M7.18334 17.7778H3.37223C3.06723 17.7778 2.77472 17.6566 2.55906 17.441C2.34339 17.2253 2.22223 16.9328 2.22223 16.6278V3.37223C2.22223 3.06723 2.34339 2.77472 2.55906 2.55906C2.77472 2.34339 3.06723 2.22223 3.37223 2.22223H7.1889C7.49293 2.2237 7.78401 2.34551 7.99848 2.56101C8.21295 2.77652 8.33334 3.06819 8.33334 3.37223V16.6278C8.33334 16.9328 8.21218 17.2253 7.99651 17.441C7.78085 17.6566 7.48834 17.7778 7.18334 17.7778ZM7.22223 3.33334H3.33334V16.6667H7.22223V3.33334Z" fill="black"/>
<path d="M16.6278 17.7778H12.8167C12.5117 17.7778 12.2192 17.6566 12.0035 17.441C11.7878 17.2253 11.6667 16.9328 11.6667 16.6278V3.37223C11.6667 3.06723 11.7878 2.77472 12.0035 2.55906C12.2192 2.34339 12.5117 2.22223 12.8167 2.22223H16.6334C16.9374 2.2237 17.2285 2.34551 17.4429 2.56101C17.6574 2.77652 17.7778 3.06819 17.7778 3.37223V16.6278C17.7778 16.9328 17.6566 17.2253 17.441 17.441C17.2253 17.6566 16.9328 17.7778 16.6278 17.7778ZM16.6667 3.33334H12.7778V16.6667H16.6667V3.33334Z" fill="black"/>
</svg>
