<svg width="24" height="24" viewBox="0 0 24 24" fill="none" xmlns="http://www.w3.org/2000/svg">
<path d="M14.75 16.5C16.058 16.5 16.568 17.083 16.955 18.375L17.023 18.612C17.206 19.269 17.315 19.466 17.536 19.557C17.795 19.664 17.967 19.649 18.239 19.509L18.386 19.427C18.439 19.395 18.496 19.358 18.562 19.315L19.225 18.864C19.841 18.459 20.395 18.191 21.068 18.023C21.2598 17.978 21.4616 18.0102 21.6298 18.1128C21.798 18.2154 21.9191 18.38 21.967 18.5711C22.0148 18.7623 21.9855 18.9645 21.8854 19.1342C21.7853 19.3039 21.6224 19.4274 21.432 19.478C21.0269 19.5809 20.6403 19.7462 20.286 19.968L19.988 20.158L19.508 20.486C19.3213 20.6171 19.1266 20.7363 18.925 20.843C18.282 21.173 17.655 21.229 16.965 20.943C16.219 20.637 15.919 20.164 15.638 19.223L15.482 18.68C15.301 18.091 15.177 18 14.75 18C14.44 18 14.12 18.155 13.681 18.523L13.497 18.684L12.576 19.559C11.168 20.883 9.96699 21.526 8.24799 21.526C6.56199 21.526 5.10399 21.272 3.87999 20.757L6.82699 19.953C7.27399 20.001 7.74799 20.026 8.24799 20.026C9.43099 20.026 10.28 19.611 11.335 18.663L11.593 18.424L12.125 17.914C12.361 17.687 12.539 17.524 12.717 17.374C13.401 16.801 14.022 16.5 14.75 16.5V16.5ZM19.03 2.97C19.7007 3.64113 20.0775 4.55115 20.0775 5.5C20.0775 6.44885 19.7007 7.35887 19.03 8.03L18.742 8.32C19.893 9.72 19.852 11.206 18.781 12.28L16.78 14.28C16.6392 14.4206 16.4483 14.4994 16.2493 14.4992C16.0503 14.4991 15.8596 14.4198 15.719 14.279C15.5784 14.1382 15.4996 13.9473 15.4998 13.7483C15.4999 13.5493 15.5792 13.3586 15.72 13.218L17.719 11.22C18.204 10.733 18.259 10.13 17.679 9.381L9.06199 18C8.78486 18.2771 8.44015 18.4771 8.06199 18.58L2.94699 19.975C2.81948 20.0096 2.68509 20.0099 2.55743 19.9759C2.42977 19.9418 2.31336 19.8747 2.21999 19.7812C2.12662 19.6877 2.0596 19.5713 2.02571 19.4436C1.99181 19.3159 1.99226 19.1815 2.02699 19.054L3.42099 13.938C3.52409 13.5602 3.72401 13.2158 4.00099 12.939L13.97 2.97C14.3023 2.63761 14.6968 2.37394 15.1309 2.19404C15.5651 2.01415 16.0305 1.92155 16.5005 1.92155C16.9705 1.92155 17.4359 2.01415 17.87 2.19404C18.3042 2.37394 18.6987 2.63761 19.031 2.97H19.03ZM15.03 4.03L5.06199 14C4.96979 14.0923 4.90326 14.2071 4.86899 14.333L3.81899 18.183L7.66899 17.133C7.79438 17.0978 7.90846 17.0306 7.99999 16.938L17.97 6.97C18.3599 6.58013 18.5789 6.05136 18.5789 5.5C18.5789 4.94864 18.3599 4.41987 17.97 4.03C17.5801 3.64013 17.0513 3.4211 16.5 3.4211C15.9486 3.4211 15.4199 3.64013 15.03 4.03V4.03Z" fill="black"/>
</svg>
