<svg width="14" height="14" viewBox="0 0 14 14" fill="none" xmlns="http://www.w3.org/2000/svg">
<path d="M3.13831 12.2889C2.92481 12.2889 2.72006 12.2041 2.56909 12.0531C2.41813 11.9021 2.33331 11.6974 2.33331 11.4839V2.45777C2.33327 2.32038 2.36839 2.18526 2.43534 2.06527C2.50229 1.94529 2.59883 1.84444 2.71578 1.77232C2.83273 1.7002 2.96619 1.65922 3.10346 1.65327C3.24072 1.64732 3.37723 1.6766 3.49998 1.73833L12.5261 6.25333C12.6595 6.3203 12.7717 6.42305 12.8501 6.5501C12.9284 6.67715 12.9699 6.82349 12.9699 6.97277C12.9699 7.12206 12.9284 7.2684 12.8501 7.39545C12.7717 7.5225 12.6595 7.62525 12.5261 7.69222L3.49998 12.2033C3.3878 12.2598 3.26391 12.2891 3.13831 12.2889V12.2889ZM3.13831 2.43444L3.11109 2.45777V11.4839L3.14998 11.5072L12.1761 7C12.1781 6.99645 12.1792 6.99242 12.1792 6.98833C12.1792 6.98423 12.1781 6.98021 12.1761 6.97666L3.13831 2.43444Z" fill="black"/>
</svg>
