<svg width="24" height="24" viewBox="0 0 24 24" fill="none" xmlns="http://www.w3.org/2000/svg">
<path d="M12.7272 4.47656H11.2272V12.8255L16.6466 15.4012L17.2905 14.0464L12.7272 11.8776V4.47656Z" fill="black"/>
<path d="M12 0.75C5.78681 0.75 0.75 5.78681 0.75 12C0.75 18.2132 5.78681 23.25 12 23.25C18.2132 23.25 23.25 18.2132 23.25 12C23.25 5.78681 18.2132 0.75 12 0.75ZM12 21.75C6.61523 21.75 2.25 17.3848 2.25 12C2.25 6.61523 6.61523 2.25 12 2.25C17.3848 2.25 21.75 6.61523 21.75 12C21.75 17.3848 17.3848 21.75 12 21.75Z" fill="black"/>
</svg>
